<?xml version="1.0" encoding="UTF-8"?>
<svg version="1.1" xmlns="http://www.w3.org/2000/svg" width="512" height="512">
<path d="M0 0 C9.81124087 8.02059615 16.53100329 17.80455596 18.0546875 30.6796875 C18.1796875 34.2421875 18.1796875 34.2421875 18.0546875 36.6796875 C18.71855469 36.52371094 19.38242188 36.36773437 20.06640625 36.20703125 C20.94941406 36.01238281 21.83242187 35.81773438 22.7421875 35.6171875 C24.04736328 35.32134766 24.04736328 35.32134766 25.37890625 35.01953125 C28.21470026 34.65936471 30.30258732 34.97058781 33.0546875 35.6796875 C33.0546875 37.3296875 33.0546875 38.9796875 33.0546875 40.6796875 C28.09395328 42.00254996 23.14357238 41.76861947 18.0546875 41.6796875 C17.88453125 42.3809375 17.714375 43.0821875 17.5390625 43.8046875 C15.97998043 49.90832795 14.03264451 55.13452617 11.0546875 60.6796875 C11.0546875 61.0096875 11.0546875 61.3396875 11.0546875 61.6796875 C12.28316406 61.463125 13.51164063 61.2465625 14.77734375 61.0234375 C44.76907041 56.13121119 74.41199937 58.0106444 103.63330078 66.02246094 C106.0790178 66.68629137 108.5318173 67.31473449 110.98828125 67.9375 C118.97226896 69.99827573 126.10188095 72.10873349 133.0546875 76.6796875 C134.57368476 77.57863062 136.09465897 78.47423831 137.6171875 79.3671875 C139.43084967 80.4694442 141.24319139 81.57387462 143.0546875 82.6796875 C143.64169434 83.03160156 144.22870117 83.38351563 144.83349609 83.74609375 C188.14679592 109.73627621 221.03057583 150.43462393 234.0546875 199.6796875 C238.01061575 216.34476384 240.2904736 232.31446059 240.3046875 249.4296875 C240.30536224 250.16134125 240.30603699 250.892995 240.30673218 251.64682007 C240.28888536 263.87155845 239.56385677 275.68218645 237.0546875 287.6796875 C236.88308105 288.50678223 236.71147461 289.33387695 236.53466797 290.18603516 C229.73867681 321.83385455 215.5109367 351.33794271 194.0546875 375.6796875 C193.20390625 376.65164063 192.353125 377.62359375 191.4765625 378.625 C159.42669144 414.70207999 112.49734551 438.73956377 64.0546875 441.6796875 C16.87512702 443.41567954 -29.03348571 433.12816915 -66.9453125 403.6796875 C-67.80898437 403.02613281 -68.67265625 402.37257813 -69.5625 401.69921875 C-99.7957238 378.27571469 -124.41968919 344.79635916 -134.9453125 307.6796875 C-134.9453125 306.6896875 -134.9453125 305.6996875 -134.9453125 304.6796875 C-135.66976562 305.02902344 -136.39421875 305.37835938 -137.140625 305.73828125 C-146.74320354 310.25789488 -146.74320354 310.25789488 -151.9453125 310.6796875 C-151.60306641 311.58460938 -151.60306641 311.58460938 -151.25390625 312.5078125 C-150.96644531 313.30703125 -150.67898437 314.10625 -150.3828125 314.9296875 C-150.09277344 315.71859375 -149.80273438 316.5075 -149.50390625 317.3203125 C-148.90008413 319.87072202 -149.0979193 321.23290979 -149.9453125 323.6796875 C-151.2653125 324.0096875 -152.5853125 324.3396875 -153.9453125 324.6796875 C-154.62126565 323.26742824 -155.28571309 321.84965845 -155.9453125 320.4296875 C-156.3165625 319.64078125 -156.6878125 318.851875 -157.0703125 318.0390625 C-157.9453125 315.6796875 -157.9453125 315.6796875 -157.9453125 311.6796875 C-159.1621875 311.7621875 -160.3790625 311.8446875 -161.6328125 311.9296875 C-174.02583963 311.89065434 -184.21073599 306.1687269 -193.1328125 298.0546875 C-201.19553268 289.63791573 -204.8488374 278.81849035 -205.2578125 267.3671875 C-205.00722006 256.81282366 -201.90710077 248.31069465 -195.9453125 239.6796875 C-195.0790625 238.349375 -195.0790625 238.349375 -194.1953125 236.9921875 C-186.10062498 228.67264754 -175.97242951 224.55632672 -164.9453125 221.6796875 C-164.89632812 220.76445312 -164.84734375 219.84921875 -164.796875 218.90625 C-164.72210938 217.71773437 -164.64734375 216.52921875 -164.5703125 215.3046875 C-164.50070313 214.12132812 -164.43109375 212.93796875 -164.359375 211.71875 C-163.9453125 208.6796875 -163.9453125 208.6796875 -161.9453125 206.6796875 C-159.8203125 207.0546875 -159.8203125 207.0546875 -157.9453125 207.6796875 C-157.76284841 212.97114597 -158.11238759 216.64275211 -159.9453125 221.6796875 C-158.35589844 221.98712891 -158.35589844 221.98712891 -156.734375 222.30078125 C-155.34632428 222.57276416 -153.95830506 222.84490794 -152.5703125 223.1171875 C-151.52230469 223.31924805 -151.52230469 223.31924805 -150.453125 223.52539062 C-145.171875 224.56640625 -145.171875 224.56640625 -142.9453125 225.6796875 C-142.92549316 224.9997876 -142.90567383 224.3198877 -142.88525391 223.61938477 C-142.78909968 220.49331009 -142.67979184 217.36782277 -142.5703125 214.2421875 C-142.539375 213.17291016 -142.5084375 212.10363281 -142.4765625 211.00195312 C-142.26793428 205.31683415 -141.72616731 200.09000704 -140.35058594 194.57202148 C-139.81995928 192.0943786 -139.914051 189.93127719 -140.2578125 187.4296875 C-140.35707031 186.64078125 -140.45632812 185.851875 -140.55859375 185.0390625 C-140.81608193 183.46812451 -141.11784037 181.90379993 -141.46337891 180.34985352 C-141.94228708 177.69644992 -142.05948838 175.29035523 -142.04296875 172.59765625 C-142.03974609 171.66630859 -142.03652344 170.73496094 -142.03320312 169.77539062 C-142.02063477 168.33583008 -142.02063477 168.33583008 -142.0078125 166.8671875 C-142.00330078 165.88814453 -141.99878906 164.90910156 -141.99414062 163.90039062 C-141.98239934 161.49342639 -141.96597669 159.08658893 -141.9453125 156.6796875 C-142.6053125 156.6796875 -143.2653125 156.6796875 -143.9453125 156.6796875 C-143.9453125 156.0196875 -143.9453125 155.3596875 -143.9453125 154.6796875 C-144.6465625 154.9890625 -145.3478125 155.2984375 -146.0703125 155.6171875 C-157.63488361 159.89105074 -169.95960285 157.89105237 -181.0078125 153.0546875 C-192.76151371 146.68307124 -199.98714005 136.17917946 -203.9453125 123.6796875 C-206.70686857 111.88031155 -204.27981329 99.71867105 -198.57421875 89.125 C-192.05576888 79.33950931 -183.12109151 73.35540171 -172.2578125 69.3046875 C-159.02035412 66.69525012 -146.04270091 68.45172091 -134.6953125 75.8671875 C-124.59047534 83.47018395 -118.41720286 92.32023572 -115.9453125 104.6796875 C-115.9453125 105.9996875 -115.9453125 107.3196875 -115.9453125 108.6796875 C-115.24664062 108.174375 -114.54796875 107.6690625 -113.828125 107.1484375 C-112.91804688 106.49875 -112.00796875 105.8490625 -111.0703125 105.1796875 C-110.16539063 104.53 -109.26046875 103.8803125 -108.328125 103.2109375 C-105.9453125 101.6796875 -105.9453125 101.6796875 -103.9453125 101.6796875 C-104.02136719 100.94492188 -104.09742187 100.21015625 -104.17578125 99.453125 C-103.87925582 95.88476807 -102.76861583 94.80156771 -100.2578125 92.3046875 C-99.57332031 91.59570312 -98.88882813 90.88671875 -98.18359375 90.15625 C-95.9453125 88.6796875 -95.9453125 88.6796875 -93.17578125 88.953125 C-92.43972656 89.19289063 -91.70367187 89.43265625 -90.9453125 89.6796875 C-91.2753125 91.3296875 -91.6053125 92.9796875 -91.9453125 94.6796875 C-90.3192838 94.61968644 -88.69429701 94.530899 -87.0703125 94.4296875 C-86.16539062 94.38328125 -85.26046875 94.336875 -84.328125 94.2890625 C-83.14863281 93.98742187 -83.14863281 93.98742187 -81.9453125 93.6796875 C-80.86215041 91.86358908 -80.86215041 91.86358908 -79.9453125 89.6796875 C-73.55450111 83.38200269 -62.36353152 73.6796875 -52.9453125 73.6796875 C-53.6259375 73.0403125 -54.3065625 72.4009375 -55.0078125 71.7421875 C-65.54636106 61.08422196 -71.2578125 49.77148015 -71.2578125 34.69042969 C-70.985754 21.86039831 -65.98764517 11.48985536 -56.8125 2.6171875 C-40.53011002 -10.9222909 -17.41269637 -12.82033689 0 0 Z M-52.2578125 16.1171875 C-58.08562306 23.2910956 -59.7088161 31.61848444 -58.9453125 40.6796875 C-57.60693588 48.5012096 -54.13958924 53.7880969 -48.9453125 59.6796875 C-48.3575 59.05578125 -47.7696875 58.431875 -47.1640625 57.7890625 C-43.25442659 54.07215512 -39.28486931 52.6796875 -33.9453125 52.6796875 C-33.9453125 53.9996875 -33.9453125 55.3196875 -33.9453125 56.6796875 C-39.3903125 59.1546875 -39.3903125 59.1546875 -44.9453125 61.6796875 C-39.80831947 66.81668053 -33.81980547 68.3758057 -26.7578125 68.9296875 C-15.59102337 68.19743903 -8.04149973 63.4090099 -0.62890625 55.2265625 C4.2530495 49.22248558 6.12669209 42.04110866 6 34.3671875 C4.93387953 25.14198176 1.57713975 17.67867786 -5.2578125 11.3046875 C-20.67554857 -0.7896699 -39.39835189 2.05708929 -52.2578125 16.1171875 Z M-184.9453125 91.6796875 C-191.9242898 100.50152433 -192.86514222 109.66501764 -191.9453125 120.6796875 C-189.8695225 129.25630487 -183.29691645 136.8284304 -176.015625 141.64453125 C-168.53556984 145.38455883 -160.06338519 146.86342438 -151.9453125 144.6796875 C-142.4307671 141.20749626 -135.30623614 136.12464051 -130.5703125 127.04296875 C-126.72754473 117.68956525 -126.67504365 108.7583469 -130.49609375 99.38671875 C-135.11724839 90.75475064 -141.82020077 85.06811414 -150.9453125 81.6796875 C-163.46991505 77.92718012 -175.92002558 82.7270387 -184.9453125 91.6796875 Z M-57.9453125 88.6796875 C-60.5853125 90.6596875 -63.2253125 92.6396875 -65.9453125 94.6796875 C-62.54937772 94.6796875 -61.87911369 94.15802802 -59.2578125 92.1796875 C-58.63519531 91.715625 -58.01257813 91.2515625 -57.37109375 90.7734375 C-56.90058594 90.4125 -56.43007812 90.0515625 -55.9453125 89.6796875 C-56.6053125 89.3496875 -57.2653125 89.0196875 -57.9453125 88.6796875 Z M-67.9453125 95.6796875 C-68.9353125 97.1646875 -68.9353125 97.1646875 -69.9453125 98.6796875 C-68.6253125 98.0196875 -67.3053125 97.3596875 -65.9453125 96.6796875 C-66.6053125 96.3496875 -67.2653125 96.0196875 -67.9453125 95.6796875 Z M-112.2578125 122.4921875 C-125.05669646 135.91886482 -130.13106165 152.48405642 -130.2109375 170.67578125 C-130.17117617 173.86008471 -130.17117617 173.86008471 -127.9453125 176.6796875 C-127.53974121 175.77597412 -127.53974121 175.77597412 -127.12597656 174.85400391 C-120.40230204 160.00612417 -113.3276992 144.88537309 -102.265625 132.6953125 C-99.4868507 129.08384152 -98.38749523 125.83285279 -97.1953125 121.4921875 C-96.98777344 120.78126953 -96.78023437 120.07035156 -96.56640625 119.33789062 C-96.01712847 117.4543994 -95.48049426 115.5672324 -94.9453125 113.6796875 C-94.6153125 112.6896875 -94.2853125 111.6996875 -93.9453125 110.6796875 C-100.48429157 110.6796875 -107.81913442 118.22863177 -112.2578125 122.4921875 Z M-185.6640625 246.64453125 C-191.23842039 254.19997221 -193.68948737 262.59461387 -192.3828125 271.9296875 C-190.5550618 280.46662062 -186.88796175 288.05507805 -179.71875 293.3125 C-171.67070969 298.47022243 -164.41319494 300.48527749 -154.87109375 299.3515625 C-149.51843524 298.12238057 -144.33766409 295.99965894 -139.9453125 292.6796875 C-137.92731078 288.08787849 -139.54141037 282.7763245 -140.3203125 277.9921875 C-142.24747592 265.25964813 -142.66643129 252.53903878 -142.9453125 239.6796875 C-144.22667942 239.02631631 -145.50951463 238.37582409 -146.79296875 237.7265625 C-147.50718994 237.36401367 -148.22141113 237.00146484 -148.95727539 236.62792969 C-151.3502757 235.48653055 -153.30023681 234.93774367 -155.9453125 234.6796875 C-156.89470703 234.58494141 -156.89470703 234.58494141 -157.86328125 234.48828125 C-168.5990942 233.89923665 -178.64461274 238.62002391 -185.6640625 246.64453125 Z " fill="#E94B23" transform="translate(222.9453125,24.3203125)"/>
<path d="M0 0 C10.20361194 4.68311673 19.09171012 10.19856932 28 17 C28.87269531 17.65871094 29.74539063 18.31742188 30.64453125 18.99609375 C71.95677848 51.09817924 96.80045715 97.6132676 103.6171875 149.25 C104.295501 156.05752384 104.24432353 162.91485951 104.25 169.75 C104.25067474 170.48165375 104.25134949 171.2133075 104.25204468 171.96713257 C104.23419786 184.19187095 103.50916927 196.00249895 101 208 C100.82839355 208.82709473 100.65678711 209.65418945 100.47998047 210.50634766 C93.68398931 242.15416705 79.4562492 271.65825521 58 296 C57.14921875 296.97195313 56.2984375 297.94390625 55.421875 298.9453125 C23.37200394 335.02239249 -23.55734199 359.05987627 -72 362 C-119.17956048 363.73599204 -165.08817321 353.44848165 -203 324 C-204.29550781 323.01966797 -204.29550781 323.01966797 -205.6171875 322.01953125 C-233.68508826 300.2736337 -266.61150996 262.16040545 -271.34375 225.32421875 C-271 223 -271 223 -269.4609375 221.33203125 C-268.77257812 220.83058594 -268.08421875 220.32914063 -267.375 219.8125 C-258.29225903 212.33165338 -255.27731775 201.87605448 -252 191 C-249.01931598 192.43262945 -246.24158318 194.06168035 -243.4375 195.8125 C-236.71449594 199.86607598 -229.82238253 203.25370438 -222.25 205.375 C-218.05672024 206.70152084 -216.05141217 208.76479573 -213.13671875 211.96484375 C-206.16159899 218.60842217 -196.88730994 223.47572192 -188 227 C-189.13088423 230.39265269 -189.94297711 230.9348413 -192.6875 233.0625 C-201.23002 240.36497677 -205.20082258 250.09702331 -206.31640625 261.12890625 C-206.78407967 273.66557106 -203.20248366 284.48914471 -195 294 C-188.03086176 301.40380383 -178.98838414 306.90250579 -168.65625 307.2734375 C-154.67141646 307.66235839 -143.6726702 305.74862949 -133 296 C-125.70343048 289.06978543 -120.51938884 280.21464714 -120 270 C-119.938125 268.95972656 -119.87625 267.91945313 -119.8125 266.84765625 C-119.39873457 254.93897005 -122.31860542 245.22810072 -130 236 C-132.0865358 234.03021982 -134.21206338 232.19156777 -136.4609375 230.41015625 C-137.22277344 229.71212891 -137.22277344 229.71212891 -138 229 C-138 228.34 -138 227.68 -138 227 C-136.44152344 226.27296875 -136.44152344 226.27296875 -134.8515625 225.53125 C-125.74549108 221.19023756 -116.92577698 216.74310724 -110.234375 208.94140625 C-107.18179843 206.28908011 -103.79233373 205.35855725 -100 204.1875 C-92.30622066 201.65004109 -85.80832612 198.44208323 -79 194 C-77.97712891 193.34064453 -77.97712891 193.34064453 -76.93359375 192.66796875 C-75.60922935 191.79837449 -74.30132981 190.90370126 -73 190 C-72.90203125 190.60585938 -72.8040625 191.21171875 -72.703125 191.8359375 C-70.53952901 203.95953573 -66.32847859 214.32496272 -56.31640625 222.078125 C-47.586731 227.84140575 -40.22449824 230.57514397 -29.75 230.5 C-28.82413086 230.49427979 -27.89826172 230.48855957 -26.94433594 230.48266602 C-15.48957724 230.18476205 -6.18190061 226.08749407 2 218 C4.681615 214.83952518 6.8995034 211.56975588 9 208 C9.43570312 207.29875 9.87140625 206.5975 10.3203125 205.875 C15.09881626 196.51848915 14.46132647 183.33690421 12.15234375 173.32421875 C7.78623843 161.91314349 -0.05585754 153.36533382 -11 148 C-17.20533301 145.41138253 -22.74134579 144.52612324 -29.4375 144.625 C-30.61022461 144.60759766 -30.61022461 144.60759766 -31.80664062 144.58984375 C-37.9319461 144.62004246 -43.23254118 145.99663899 -49 148 C-48.98428955 147.09459473 -48.98428955 147.09459473 -48.96826172 146.17089844 C-48.56700498 128.8440518 -48.56700498 128.8440518 -51.62109375 111.8671875 C-52.20791194 108.97544425 -50.95481972 106.75836807 -50 104 C-48.90388046 97.31745055 -48.88250321 90.76037443 -48.9375 84 C-48.94426758 82.40865234 -48.94426758 82.40865234 -48.95117188 80.78515625 C-48.96286157 78.19004402 -48.97924724 75.59505291 -49 73 C-48.46995361 73.21076172 -47.93990723 73.42152344 -47.39379883 73.63867188 C-41.39907398 75.85098757 -36.05620893 76.54612468 -29.6875 76.5 C-28.30546387 76.49141968 -28.30546387 76.49141968 -26.89550781 76.48266602 C-15.33245452 76.18046373 -6.36607384 71.96610218 2 64 C10.79198482 54.72626259 14.3753345 42.64422355 14.20703125 30.11328125 C13.58283156 20.72673126 9.38371441 12.60666746 4 5 C2.6826696 3.97901106 1.353403 2.97266546 0 2 C0 1.34 0 0.68 0 0 Z " fill="#D0EDFD" transform="translate(359,104)"/>
<path d="M0 0 C13.4387594 9.42140644 23.00760345 23.60032006 27.07421875 39.56640625 C27.72391306 43.77419203 27.78044792 47.92885425 27.88671875 52.1796875 C28.0928515 59.72754468 29.49651218 65.18186359 33.078125 71.94140625 C37.63586611 80.66418492 38.75478203 90.13435234 38.69921875 99.8671875 C38.70308594 100.54845703 38.70695313 101.22972656 38.7109375 101.93164062 C38.70313446 105.99312104 38.35735002 109.82066253 37.57421875 113.8046875 C38.07566406 113.5159375 38.57710937 113.2271875 39.09375 112.9296875 C48.97426965 108.08200494 62.13479283 107.940038 72.57421875 111.3046875 C83.13821403 116.00525594 90.62958537 122.95757714 96.57421875 132.8046875 C97.02925781 133.5265625 97.48429688 134.2484375 97.953125 134.9921875 C102.70890654 144.27176123 102.0501555 157.60052859 99.69140625 167.515625 C94.91226751 179.82744599 86.00418981 188.8108224 74.32421875 194.7421875 C63.97671635 198.73526214 50.25579801 198.74842528 39.88671875 194.8046875 C27.15288201 188.32893292 18.77934617 178.84096882 14.28515625 165.30078125 C13.4835668 162.48640949 12.88892757 159.71574412 12.57421875 156.8046875 C12.15914062 157.15660156 11.7440625 157.50851562 11.31640625 157.87109375 C3.25771086 164.32816558 -5.97877123 168.90258544 -15.86328125 171.8046875 C-20.70412566 173.31228293 -23.08924999 175.04993511 -26.39453125 178.80078125 C-33.16169997 185.47685347 -42.28821366 190.44152347 -51.42578125 192.8046875 C-51.42578125 193.4646875 -51.42578125 194.1246875 -51.42578125 194.8046875 C-50.85730469 195.04316406 -50.28882813 195.28164063 -49.703125 195.52734375 C-40.83099914 200.50364762 -35.82137102 210.37378166 -32.8125 219.70703125 C-30.34949001 233.06699453 -33.40140809 245.44128471 -40.42578125 256.8046875 C-46.97635508 265.48049884 -56.23651867 270.40826664 -66.42578125 273.8046875 C-76.6034904 274.697469 -87.43993116 275.19619755 -96.42578125 269.8046875 C-97.18761719 269.38058594 -97.94945312 268.95648438 -98.734375 268.51953125 C-109.1803773 262.19556021 -116.19315887 252.62996855 -119.73828125 240.9921875 C-122.0952459 229.59637786 -120.52100361 218.14365035 -114.84765625 207.9765625 C-111.70986502 203.25574146 -108.29804465 199.42365299 -103.80859375 195.9609375 C-102.27423171 194.83433263 -102.27423171 194.83433263 -101.42578125 192.8046875 C-102.14378906 192.69253906 -102.86179688 192.58039063 -103.6015625 192.46484375 C-114.44071927 189.93120959 -124.81073909 181.49917344 -131.42578125 172.8046875 C-130.4670813 172.82039795 -130.4670813 172.82039795 -129.48901367 172.83642578 C-126.5304779 172.87857245 -123.57200564 172.90419695 -120.61328125 172.9296875 C-119.10604492 172.95482422 -119.10604492 172.95482422 -117.56835938 172.98046875 C-108.10630182 173.04131799 -99.41248355 171.93505021 -90.61328125 168.3046875 C-86.58351191 166.66274422 -82.56781903 165.14202705 -78.42578125 163.8046875 C-77.40315422 155.68210708 -80.82917841 150.71473369 -84.98828125 143.9296875 C-85.67372359 142.78235237 -86.3572831 141.63389053 -87.0390625 140.484375 C-88.4551676 138.10007223 -89.87920306 135.72079256 -91.30908203 133.34472656 C-94.59102524 127.87575545 -97.75296254 122.33741919 -100.92578125 116.8046875 C-104.4616555 110.64358765 -108.00537145 104.48937606 -111.64904785 98.3913269 C-113.07343612 96.00488192 -114.48718978 93.61222069 -115.90014648 91.21899414 C-116.90421994 89.52848912 -117.92363643 87.84712712 -118.94335938 86.16601562 C-119.54599609 85.14314453 -120.14863281 84.12027344 -120.76953125 83.06640625 C-121.30771484 82.16881592 -121.84589844 81.27122559 -122.40039062 80.34643555 C-123.66469449 77.2124671 -123.51438033 75.98297289 -122.42578125 72.8046875 C-121.36601745 70.68150614 -120.22767056 68.59679671 -119.0390625 66.54296875 C-118.69957077 65.95227097 -118.36007904 65.36157318 -118.01029968 64.75297546 C-116.92615634 62.87052009 -115.83232657 60.99390159 -114.73828125 59.1171875 C-114.0221619 57.87601119 -113.30666146 56.63447756 -112.59179688 55.39257812 C-108.84206204 48.89468525 -108.84206204 48.89468525 -107.53411865 46.74552917 C-106.34491913 44.72674669 -106.34491913 44.72674669 -105.21734619 42.19746399 C-101.79934459 35.36858258 -101.79934459 35.36858258 -98.09693909 33.84861755 C-95.22908901 33.42852944 -92.51944087 33.33950794 -89.62109375 33.37109375 C-88.06417313 33.34607033 -88.06417313 33.34607033 -86.47579956 33.32054138 C-84.28554565 33.30063859 -82.09492705 33.30640241 -79.90478516 33.33618164 C-76.56261647 33.36707809 -73.2388848 33.27561393 -69.8984375 33.17382812 C-54.57397211 33.00947347 -54.57397211 33.00947347 -49.41699219 37.3190918 C-47.30244227 40.72514931 -45.87426337 44.07028109 -44.42578125 47.8046875 C-43.10396493 50.13202019 -41.76184246 52.41311415 -40.36328125 54.69140625 C-39.04883233 56.95720384 -37.73632942 59.22413147 -36.42578125 61.4921875 C-35.7396338 62.66864923 -35.05343603 63.84508161 -34.3671875 65.02148438 C-33.72652344 66.12943359 -33.08585937 67.23738281 -32.42578125 68.37890625 C-31.84828125 69.37494873 -31.27078125 70.37099121 -30.67578125 71.3972168 C-29.42578125 73.8046875 -29.42578125 73.8046875 -29.42578125 75.8046875 C-28.76578125 75.8046875 -28.10578125 75.8046875 -27.42578125 75.8046875 C-27.13703125 75.0621875 -26.84828125 74.3196875 -26.55078125 73.5546875 C-25.42578125 70.8046875 -25.42578125 70.8046875 -24.23828125 68.8046875 C-23.12370079 66.06110483 -23.64994858 64.65398449 -24.42578125 61.8046875 C-25.39203667 59.84598665 -26.43633634 57.92495058 -27.53125 56.03515625 C-28.17843994 54.91044922 -28.82562988 53.78574219 -29.49243164 52.62695312 C-30.19920399 51.41526102 -30.90615809 50.20367491 -31.61328125 48.9921875 C-32.33708187 47.74056655 -33.06030096 46.48860913 -33.78295898 45.23632812 C-35.63066296 42.03890146 -37.48701747 38.84660146 -39.34680176 35.65618896 C-40.37935094 33.88436073 -41.41024561 32.1115831 -42.44042969 30.33837891 C-45.36713901 25.30208078 -48.29937723 20.26909519 -51.2421875 15.2421875 C-51.75410645 14.36433594 -52.26602539 13.48648438 -52.79345703 12.58203125 C-53.97769656 10.56708825 -55.17582717 8.56028889 -56.38232422 6.55859375 C-57.02443848 5.48480469 -57.66655273 4.41101563 -58.328125 3.3046875 C-59.21552368 1.83515625 -59.21552368 1.83515625 -60.12084961 0.3359375 C-61.42578125 -2.1953125 -61.42578125 -2.1953125 -61.42578125 -5.1953125 C-59.34285695 -5.84246383 -57.25942586 -6.48798416 -55.17578125 -7.1328125 C-54.015625 -7.49246094 -52.85546875 -7.85210937 -51.66015625 -8.22265625 C-50.5928125 -8.54363281 -49.52546875 -8.86460937 -48.42578125 -9.1953125 C-47.79542969 -9.39511719 -47.16507812 -9.59492188 -46.515625 -9.80078125 C-30.33577722 -12.85529457 -13.72078966 -8.72290311 0 0 Z " fill="#E94E27" transform="translate(272.42578125,138.1953125)"/>
<path d="M0 0 C0.99 0 1.98 0 3 0 C4.55852637 1.99503672 5.87318692 3.91286415 7.1875 6.0625 C7.58042236 6.69373779 7.97334473 7.32497559 8.37817383 7.9753418 C9.60550427 9.97224959 10.80765164 11.98202885 12 14 C12.36351562 14.61423828 12.72703125 15.22847656 13.1015625 15.86132812 C31.83870553 48.026757 37.67077791 89.01971096 28.46386719 125.10107422 C27.18499927 129.81123975 25.6557967 134.41037161 24 139 C23.55785156 140.24265625 23.11570312 141.4853125 22.66015625 142.765625 C17.43136647 156.6125032 10.20843232 169.39737528 1 181 C0.59555664 181.51127441 0.19111328 182.02254883 -0.22558594 182.54931641 C-24.47641309 212.94040191 -59.96364119 233.11401171 -98.75390625 237.62109375 C-105.26365751 238.19679908 -111.78240502 238.14554566 -118.3125 238.125 C-120.18518555 238.13080078 -120.18518555 238.13080078 -122.09570312 238.13671875 C-123.29775391 238.13542969 -124.49980469 238.13414062 -125.73828125 238.1328125 C-126.82149658 238.13168457 -127.90471191 238.13055664 -129.02075195 238.12939453 C-131.79265777 238.00900528 -134.30289558 237.62891841 -137 237 C-136.50628906 235.99839844 -136.01257813 234.99679687 -135.50390625 233.96484375 C-134.85626855 232.62263808 -134.20916129 231.28017637 -133.5625 229.9375 C-133.23701172 229.28072266 -132.91152344 228.62394531 -132.57617188 227.94726562 C-127.87327406 218.10511865 -127.11261976 205.54975041 -130.625 195.1875 C-134.06245502 187.00251095 -138.500918 180.92343012 -145.4609375 175.41015625 C-145.96882812 174.94480469 -146.47671875 174.47945312 -147 174 C-147 173.34 -147 172.68 -147 172 C-145.96101562 171.5153125 -144.92203125 171.030625 -143.8515625 170.53125 C-134.74549108 166.19023756 -125.92577698 161.74310724 -119.234375 153.94140625 C-116.18179843 151.28908011 -112.79233373 150.35855725 -109 149.1875 C-101.30622066 146.65004109 -94.80832612 143.44208323 -88 139 C-86.97712891 138.34064453 -86.97712891 138.34064453 -85.93359375 137.66796875 C-84.60922935 136.79837449 -83.30132981 135.90370126 -82 135 C-81.90203125 135.60585938 -81.8040625 136.21171875 -81.703125 136.8359375 C-79.53952901 148.95953573 -75.32847859 159.32496272 -65.31640625 167.078125 C-56.586731 172.84140575 -49.22449824 175.57514397 -38.75 175.5 C-37.82413086 175.49427979 -36.89826172 175.48855957 -35.94433594 175.48266602 C-24.48957724 175.18476205 -15.18190061 171.08749407 -7 163 C-4.318385 159.83952518 -2.1004966 156.56975588 0 153 C0.43570313 152.29875 0.87140625 151.5975 1.3203125 150.875 C6.09881626 141.51848915 5.46132647 128.33690421 3.15234375 118.32421875 C-1.21376157 106.91314349 -9.05585754 98.36533382 -20 93 C-26.20533301 90.41138253 -31.74134579 89.52612324 -38.4375 89.625 C-39.21931641 89.61339844 -40.00113281 89.60179687 -40.80664062 89.58984375 C-46.9319461 89.62004246 -52.23254118 90.99663899 -58 93 C-57.98952637 92.39639648 -57.97905273 91.79279297 -57.96826172 91.17089844 C-57.56700498 73.8440518 -57.56700498 73.8440518 -60.62109375 56.8671875 C-61.20791194 53.97544425 -59.95481972 51.75836807 -59 49 C-57.90388046 42.31745055 -57.88250321 35.76037443 -57.9375 29 C-57.94201172 27.93910156 -57.94652344 26.87820312 -57.95117188 25.78515625 C-57.96286157 23.19004402 -57.97924724 20.59505291 -58 18 C-57.46995361 18.21076172 -56.93990723 18.42152344 -56.39379883 18.63867188 C-50.39907398 20.85098757 -45.05620893 21.54612468 -38.6875 21.5 C-37.30546387 21.49141968 -37.30546387 21.49141968 -35.89550781 21.48266602 C-24.41497219 21.18262034 -15.24574069 17.02416608 -7 9 C-5.06306219 6.63263156 -3.2467698 4.23868385 -1.5078125 1.72265625 C-1.01023437 1.15417969 -0.51265625 0.58570313 0 0 Z " fill="#E3F1FE" transform="translate(368,159)"/>
<path d="M0 0 C8.83990227 7.5600511 14.0469269 15.61744702 16.3203125 26.984375 C16.3203125 28.304375 16.3203125 29.624375 16.3203125 30.984375 C17.01898438 30.4790625 17.71765625 29.97375 18.4375 29.453125 C19.34757812 28.8034375 20.25765625 28.15375 21.1953125 27.484375 C22.10023437 26.8346875 23.00515625 26.185 23.9375 25.515625 C26.3203125 23.984375 26.3203125 23.984375 28.3203125 23.984375 C28.24425781 23.24960938 28.16820313 22.51484375 28.08984375 21.7578125 C28.38636918 18.18945557 29.49700917 17.10625521 32.0078125 14.609375 C32.69230469 13.90039062 33.37679687 13.19140625 34.08203125 12.4609375 C36.3203125 10.984375 36.3203125 10.984375 39.08984375 11.2578125 C39.82589844 11.49757813 40.56195313 11.73734375 41.3203125 11.984375 C40.8253125 14.459375 40.8253125 14.459375 40.3203125 16.984375 C43.2903125 16.654375 46.2603125 16.324375 49.3203125 15.984375 C44.38671786 25.85156428 39.95536202 32.17982093 30.54394531 37.76269531 C16.73568748 45.99411234 9.1421169 59.35063817 4.56640625 74.4765625 C0.73778147 90.80845843 3.36166135 108.63478458 12.109375 122.90234375 C16.601922 129.39058395 22.1140354 136.38123645 29.3203125 139.984375 C29.5977832 139.25581299 29.87525391 138.52725098 30.16113281 137.77661133 C31.24846915 135.15743152 32.46928265 132.77314758 33.8671875 130.30859375 C34.37531982 129.41027832 34.88345215 128.51196289 35.40698242 127.58642578 C35.95588135 126.62462402 36.50478027 125.66282227 37.0703125 124.671875 C37.64305908 123.66366699 38.21580566 122.65545898 38.8059082 121.61669922 C43.57489498 113.24331339 48.37340485 104.88475043 53.2956543 96.6003418 C56.00822115 92.0279668 58.62304107 87.46786557 60.96875 82.6953125 C63.13267651 78.40321617 65.1234605 74.60426907 68.3203125 70.984375 C72.9544746 69.61530816 76.65437058 69.86542655 81.3203125 70.984375 C79.82773208 75.0179963 77.90958342 78.62618289 75.765625 82.3515625 C75.42280487 82.94937531 75.07998474 83.54718811 74.72677612 84.16311646 C73.63599759 86.06363701 72.54075575 87.96154009 71.4453125 89.859375 C70.71714745 91.12612942 69.98928011 92.39305501 69.26171875 93.66015625 C67.91346227 96.00742136 66.563162 98.353463 65.21142578 100.69873047 C64.5873584 101.78299316 63.96329102 102.86725586 63.3203125 103.984375 C62.93663513 104.57639709 62.55295776 105.16841919 62.15765381 105.77838135 C60.45908287 108.4756082 59.30303582 110.35647943 59.39208984 113.59301758 C60.44828749 116.31407386 61.69148835 118.72808037 63.171875 121.24609375 C63.76814697 122.26912598 64.36441895 123.2921582 64.97875977 124.34619141 C65.62772217 125.44366699 66.27668457 126.54114258 66.9453125 127.671875 C67.62436225 128.8320834 68.30265337 129.99273611 68.98022461 131.15380859 C70.38903675 133.56664811 71.8010988 135.97754135 73.21533203 138.38720703 C77.09630488 145.00847567 80.90838589 151.66985754 84.72924805 158.32592773 C87.89558612 163.82865788 91.1002733 169.30315701 94.375 174.7421875 C95.02654053 175.83257324 95.67808105 176.92295898 96.34936523 178.04638672 C97.59053377 180.11971136 98.8421245 182.18684448 100.10571289 184.24658203 C100.6599292 185.17583496 101.21414551 186.10508789 101.78515625 187.0625 C102.52173462 188.27534668 102.52173462 188.27534668 103.27319336 189.51269531 C104.54463303 192.51387397 104.58811881 194.75492942 104.3203125 197.984375 C100.08075085 204.16121978 88.38646357 207.25579589 81.3203125 208.984375 C58.17438204 212.50551123 38.12789007 208.57596902 18.8828125 194.984375 C18.0371875 194.324375 17.1915625 193.664375 16.3203125 192.984375 C16.24554688 193.56703125 16.17078125 194.1496875 16.09375 194.75 C13.89127499 208.4830795 6.52473765 219.817594 -4.6796875 227.984375 C-7.6875 229.46875 -7.6875 229.46875 -10.8046875 230.734375 C-11.83851562 231.16234375 -12.87234375 231.5903125 -13.9375 232.03125 C-16.6796875 232.984375 -16.6796875 232.984375 -19.6796875 232.984375 C-19.45152344 233.58765625 -19.22335938 234.1909375 -18.98828125 234.8125 C-18.70082031 235.61171875 -18.41335937 236.4109375 -18.1171875 237.234375 C-17.82714844 238.02328125 -17.53710938 238.8121875 -17.23828125 239.625 C-16.63445913 242.17540952 -16.8322943 243.53759729 -17.6796875 245.984375 C-18.9996875 246.314375 -20.3196875 246.644375 -21.6796875 246.984375 C-22.35564065 245.57211574 -23.02008809 244.15434595 -23.6796875 242.734375 C-24.0509375 241.94546875 -24.4221875 241.1565625 -24.8046875 240.34375 C-25.6796875 237.984375 -25.6796875 237.984375 -25.6796875 233.984375 C-26.8965625 234.066875 -28.1134375 234.149375 -29.3671875 234.234375 C-41.76021463 234.19534184 -51.94511099 228.4734144 -60.8671875 220.359375 C-68.92990768 211.94260323 -72.5832124 201.12317785 -72.9921875 189.671875 C-72.74159506 179.11751116 -69.64147577 170.61538215 -63.6796875 161.984375 C-62.8134375 160.6540625 -62.8134375 160.6540625 -61.9296875 159.296875 C-53.83499998 150.97733504 -43.70680451 146.86101422 -32.6796875 143.984375 C-32.63070312 143.06914062 -32.58171875 142.15390625 -32.53125 141.2109375 C-32.45648438 140.02242187 -32.38171875 138.83390625 -32.3046875 137.609375 C-32.23507813 136.42601562 -32.16546875 135.24265625 -32.09375 134.0234375 C-31.6796875 130.984375 -31.6796875 130.984375 -29.6796875 128.984375 C-27.5546875 129.359375 -27.5546875 129.359375 -25.6796875 129.984375 C-25.49722341 135.27583347 -25.84676259 138.94743961 -27.6796875 143.984375 C-26.09027344 144.29181641 -26.09027344 144.29181641 -24.46875 144.60546875 C-23.08069928 144.87745166 -21.69268006 145.14959544 -20.3046875 145.421875 C-19.25667969 145.62393555 -19.25667969 145.62393555 -18.1875 145.83007812 C-12.90625 146.87109375 -12.90625 146.87109375 -10.6796875 147.984375 C-10.65986816 147.3044751 -10.64004883 146.6245752 -10.61962891 145.92407227 C-10.52347468 142.79799759 -10.41416684 139.67251027 -10.3046875 136.546875 C-10.27375 135.47759766 -10.2428125 134.40832031 -10.2109375 133.30664062 C-10.00230928 127.62152165 -9.46054231 122.39469454 -8.08496094 116.87670898 C-7.55433428 114.3990661 -7.648426 112.23596469 -7.9921875 109.734375 C-8.09144531 108.94546875 -8.19070312 108.1565625 -8.29296875 107.34375 C-8.55045693 105.77281201 -8.85221537 104.20848743 -9.19775391 102.65454102 C-9.67666208 100.00113742 -9.79386338 97.59504273 -9.77734375 94.90234375 C-9.77412109 93.97099609 -9.77089844 93.03964844 -9.76757812 92.08007812 C-9.75500977 90.64051758 -9.75500977 90.64051758 -9.7421875 89.171875 C-9.73767578 88.19283203 -9.73316406 87.21378906 -9.72851562 86.20507812 C-9.71677434 83.79811389 -9.70035169 81.39127643 -9.6796875 78.984375 C-10.3396875 78.984375 -10.9996875 78.984375 -11.6796875 78.984375 C-11.6796875 78.324375 -11.6796875 77.664375 -11.6796875 76.984375 C-12.3809375 77.29375 -13.0821875 77.603125 -13.8046875 77.921875 C-25.36925861 82.19573824 -37.69397785 80.19573987 -48.7421875 75.359375 C-60.49588871 68.98775874 -67.72151505 58.48386696 -71.6796875 45.984375 C-74.44124357 34.18499905 -72.01418829 22.02335855 -66.30859375 11.4296875 C-59.79014388 1.64419681 -50.85546651 -4.33991079 -39.9921875 -8.390625 C-25.61861508 -11.22401915 -11.78347485 -8.86602288 0 0 Z M-52.6796875 13.984375 C-59.6586648 22.80621183 -60.59951722 31.96970514 -59.6796875 42.984375 C-57.6038975 51.56099237 -51.03129145 59.1331179 -43.75 63.94921875 C-36.26994484 67.68924633 -27.79776019 69.16811188 -19.6796875 66.984375 C-10.1651421 63.51218376 -3.04061114 58.42932801 1.6953125 49.34765625 C5.53808027 39.99425275 5.59058135 31.0630344 1.76953125 21.69140625 C-2.85162339 13.05943814 -9.55457577 7.37280164 -18.6796875 3.984375 C-31.20429005 0.23186762 -43.65440058 5.0317262 -52.6796875 13.984375 Z M-53.3984375 168.94921875 C-58.97279539 176.50465971 -61.42386237 184.89930137 -60.1171875 194.234375 C-58.2894368 202.77130812 -54.62233675 210.35976555 -47.453125 215.6171875 C-39.40508469 220.77490993 -32.14756994 222.78996499 -22.60546875 221.65625 C-17.25281024 220.42706807 -12.07203909 218.30434644 -7.6796875 214.984375 C-5.66168578 210.39256599 -7.27578537 205.081012 -8.0546875 200.296875 C-9.98185092 187.56433563 -10.40080629 174.84372628 -10.6796875 161.984375 C-11.96105442 161.33100381 -13.24388963 160.68051159 -14.52734375 160.03125 C-15.24156494 159.66870117 -15.95578613 159.30615234 -16.69165039 158.93261719 C-19.0846507 157.79121805 -21.03461181 157.24243117 -23.6796875 156.984375 C-24.62908203 156.88962891 -24.62908203 156.88962891 -25.59765625 156.79296875 C-36.3334692 156.20392415 -46.37898774 160.92471141 -53.3984375 168.94921875 Z " fill="#E94C25" transform="translate(90.6796875,102.015625)"/>
<path d="M0 0 C12.20424957 -0.04628766 24.40847835 -0.08185103 36.61279774 -0.10362434 C42.27941292 -0.11407306 47.94596815 -0.12825213 53.61254883 -0.15087891 C59.07845844 -0.17256845 64.54431031 -0.18456042 70.01025963 -0.18975449 C72.09831336 -0.19345724 74.18636385 -0.20068753 76.27439308 -0.21146011 C79.19317139 -0.22592331 82.11170935 -0.22798011 85.03051758 -0.22705078 C85.89870117 -0.23424133 86.76688477 -0.24143188 87.66137695 -0.24884033 C93.65784352 -0.22810432 93.65784352 -0.22810432 97 2 C97.3391594 4.70410871 97.47472232 7.10758026 97.4375 9.8125 C97.42920166 10.57860596 97.42090332 11.34471191 97.41235352 12.1340332 C96.93231777 28.52528939 88.8021224 43.9831811 78 56 C77.48179687 56.61101562 76.96359375 57.22203125 76.4296875 57.8515625 C69.05869398 65.96335939 58.55883031 72.26926802 48 75 C48 75.66 48 76.32 48 77 C48.85271484 77.35771484 48.85271484 77.35771484 49.72265625 77.72265625 C58.59478211 82.69896012 63.60441023 92.56909416 66.61328125 101.90234375 C69.07629124 115.26230703 66.02437316 127.63659721 59 139 C52.44942617 147.67581134 43.18926258 152.60357914 33 156 C22.82229085 156.8927815 11.98585009 157.39151005 3 152 C2.23816406 151.57589844 1.47632813 151.15179688 0.69140625 150.71484375 C-9.75459605 144.39087271 -16.76737762 134.82528105 -20.3125 123.1875 C-22.66946465 111.79169036 -21.09522236 100.33896285 -15.421875 90.171875 C-12.28408377 85.45105396 -8.8722634 81.61896549 -4.3828125 78.15625 C-2.84845046 77.02964513 -2.84845046 77.02964513 -2 75 C-2.71800781 74.88785156 -3.43601563 74.77570313 -4.17578125 74.66015625 C-15.01493802 72.12652209 -25.38495784 63.69448594 -32 55 C-31.3608667 55.01047363 -30.7217334 55.02094727 -30.06323242 55.03173828 C-27.10469665 55.07388495 -24.14622439 55.09950945 -21.1875 55.125 C-20.18267578 55.14175781 -19.17785156 55.15851563 -18.14257812 55.17578125 C-8.68052057 55.23663049 0.0132977 54.13036271 8.8125 50.5 C12.84226934 48.85805672 16.85796222 47.33733955 21 46 C22.16652763 37.62965261 18.11357526 32.06462812 13.875 25.125 C13.20984375 24.00480469 12.5446875 22.88460938 11.859375 21.73046875 C9.32704033 17.47515343 6.7628591 13.24051062 4.16894531 9.02246094 C3.62077148 8.1255957 3.07259766 7.22873047 2.5078125 6.3046875 C1.77908936 5.12495361 1.77908936 5.12495361 1.03564453 3.92138672 C0 2 0 2 0 0 Z " fill="#145382" transform="translate(173,256)"/>
<path d="M0 0 C0 0.99 0 1.98 0 3 C0.58652344 3.22429687 1.17304688 3.44859375 1.77734375 3.6796875 C8.84116394 7.8757705 12.34474062 18.3415956 14.55078125 25.8828125 C17.12667334 38.0231039 13.37263419 50.500363 6.75390625 60.71875 C1.18155557 67.96652906 -5.67296647 72.44308833 -14 76 C-15.06541016 76.55107422 -15.06541016 76.55107422 -16.15234375 77.11328125 C-20.51126983 78.47058745 -24.7744496 78.32833409 -29.3125 78.3125 C-30.68051758 78.33666992 -30.68051758 78.33666992 -32.07617188 78.36132812 C-38.08015778 78.36563206 -42.50902716 77.43971713 -48 75 C-47.98952637 75.60360352 -47.97905273 76.20720703 -47.96826172 76.82910156 C-47.60066783 101.23919717 -47.60066783 101.23919717 -50 109 C-50.66 109.66 -51.32 110.32 -52 111 C-56.8955133 103.16462232 -59.50664564 96.88200157 -59.625 87.625 C-59.86042542 72.73806716 -64.4123786 61.14289665 -73 49 C-73.68835938 47.98873047 -73.68835938 47.98873047 -74.390625 46.95703125 C-83.30792143 35.21950553 -98.95192635 28.68732894 -113 26 C-115.81939698 25.69539094 -118.60287898 25.61995507 -121.4375 25.625 C-122.20304199 25.62371094 -122.96858398 25.62242187 -123.75732422 25.62109375 C-132.13819178 25.77194594 -139.97364461 27.72417265 -148 30 C-144.02924337 38.59424038 -139.31129045 46.66219058 -134.46435547 54.78198242 C-129.69649363 62.78234985 -125.04832938 70.84605318 -120.4375 78.9375 C-120.09438782 79.53941162 -119.75127563 80.14132324 -119.39776611 80.76147461 C-117.80279683 83.5600696 -116.2096754 86.35967096 -114.62060547 89.16162109 C-113.64243929 90.87481181 -112.65469976 92.58265516 -111.64892578 94.27978516 C-109 98.75195227 -109 98.75195227 -109 101.5 C-110.35702174 104.89255434 -112.10137309 107.87645251 -114 111 C-114.66 111 -115.32 111 -116 111 C-116.3717334 110.33170166 -116.7434668 109.66340332 -117.12646484 108.97485352 C-126.45577131 92.20776485 -126.45577131 92.20776485 -136.0925293 75.61669922 C-140.651493 67.92939736 -145.1017956 60.17970214 -149.56030273 52.43383789 C-150.16302002 51.38703857 -150.7657373 50.34023926 -151.38671875 49.26171875 C-151.97759277 48.22966309 -152.5684668 47.19760742 -153.17724609 46.13427734 C-154.43069701 43.97893273 -155.71134889 41.83925106 -157.01416016 39.71337891 C-157.65530762 38.65940918 -158.29645508 37.60543945 -158.95703125 36.51953125 C-159.54073486 35.57827393 -160.12443848 34.6370166 -160.72583008 33.66723633 C-162.0950126 30.8011089 -162.41674974 29.1311551 -162 26 C-154.16200193 17.35117454 -139.4560622 14.30423896 -128.32421875 13.6796875 C-108.44813608 13.00753072 -89.18814093 17.58497537 -74 31 C-73.82984375 30.2265625 -73.6596875 29.453125 -73.484375 28.65625 C-70.0979093 14.10165273 -63.43974697 4.22598165 -50.95703125 -4.4140625 C-34.07423697 -13.94715216 -15.43556055 -10.2903737 0 0 Z " fill="#155483" transform="translate(359,103)"/>
<path d="M0 0 C1.94643072 -0.08580317 3.89603296 -0.11327231 5.84423828 -0.09204102 C7.40115891 -0.11706444 7.40115891 -0.11706444 8.98953247 -0.14259338 C11.17978638 -0.16249618 13.37040498 -0.15673236 15.56054688 -0.12695312 C18.90271556 -0.09605668 22.22644723 -0.18752084 25.56689453 -0.28930664 C40.89175038 -0.45359253 40.89175038 -0.45359253 46.05053711 3.8581543 C48.16557877 7.26390045 49.59344715 10.6062779 51.03955078 14.34155273 C52.34436007 16.64711752 53.68722299 18.93155323 55.06689453 21.19311523 C56.37223173 23.44979989 57.67562008 25.70761295 58.97705078 27.96655273 C59.65468755 29.13457812 60.33242167 30.30254703 61.01025391 31.47045898 C61.64769531 32.57518555 62.28513672 33.67991211 62.94189453 34.81811523 C63.80028931 36.30432373 63.80028931 36.30432373 64.67602539 37.82055664 C66.03955078 40.34155273 66.03955078 40.34155273 67.03955078 43.34155273 C66.1184082 45.52368164 66.1184082 45.52368164 64.64501953 48.06811523 C63.83629395 49.48133057 63.83629395 49.48133057 63.01123047 50.9230957 C62.12806152 52.42960693 62.12806152 52.42960693 61.22705078 53.96655273 C60.63698242 54.99022949 60.04691406 56.01390625 59.43896484 57.06860352 C57.64966993 60.16583149 55.84609032 63.25435846 54.03955078 66.34155273 C53.01974916 68.09660399 52.00019744 69.85180049 50.98095703 71.60717773 C44.27977505 83.10132846 44.27977505 83.10132846 43.03955078 84.34155273 C41.53536339 84.43467163 40.02683722 84.45901301 38.51977539 84.45507812 C37.07839455 84.45496483 37.07839455 84.45496483 35.6078949 84.45484924 C34.56311478 84.44968796 33.51833466 84.44452667 32.44189453 84.43920898 C31.37789932 84.43779404 30.31390411 84.43637909 29.21766663 84.43492126 C25.80409995 84.42930337 22.39059778 84.41674784 18.97705078 84.40405273 C16.66910902 84.39904004 14.36116623 84.39447673 12.05322266 84.39038086 C6.38197652 84.37932813 0.71076826 84.3625726 -4.96044922 84.34155273 C-5.96050561 82.60981446 -6.96048949 80.87803432 -7.96044922 79.14624023 C-8.59724609 78.04368896 -9.23404297 76.9411377 -9.89013672 75.80517578 C-11.2729602 73.40969889 -12.65295021 71.01262074 -14.03076172 68.61425781 C-18.34255163 61.1091413 -18.34255163 61.1091413 -22.77294922 53.67358398 C-23.15322266 53.03888184 -23.53349609 52.40417969 -23.92529297 51.75024414 C-24.88552173 50.15363736 -25.85990347 48.56556572 -26.83544922 46.97827148 C-28.21535283 43.7441224 -27.92020277 42.68795537 -26.96044922 39.34155273 C-25.90068542 37.21837137 -24.76233853 35.13366194 -23.57373047 33.07983398 C-23.23423874 32.4891362 -22.89474701 31.89843842 -22.54496765 31.2898407 C-21.46082431 29.40738532 -20.36699454 27.53076683 -19.27294922 25.65405273 C-18.55682986 24.41287642 -17.84132943 23.17134279 -17.12646484 21.92944336 C-13.37673001 15.43155048 -13.37673001 15.43155048 -12.06878662 13.28239441 C-10.8795871 11.26361192 -10.8795871 11.26361192 -9.75201416 8.73432922 C-7.28860568 3.81264505 -5.68453353 0.83268124 0 0 Z " fill="#E3F0FD" transform="translate(176.96044921875,171.658447265625)"/>
<path d="M0 0 C8.83990227 7.5600511 14.0469269 15.61744702 16.3203125 26.984375 C16.3203125 28.304375 16.3203125 29.624375 16.3203125 30.984375 C17.01898438 30.4790625 17.71765625 29.97375 18.4375 29.453125 C19.34757812 28.8034375 20.25765625 28.15375 21.1953125 27.484375 C22.10023437 26.8346875 23.00515625 26.185 23.9375 25.515625 C26.3203125 23.984375 26.3203125 23.984375 28.3203125 23.984375 C28.24425781 23.24960938 28.16820313 22.51484375 28.08984375 21.7578125 C28.38636918 18.18945557 29.49700917 17.10625521 32.0078125 14.609375 C32.69230469 13.90039062 33.37679687 13.19140625 34.08203125 12.4609375 C36.3203125 10.984375 36.3203125 10.984375 39.08984375 11.2578125 C39.82589844 11.49757813 40.56195313 11.73734375 41.3203125 11.984375 C40.8253125 14.459375 40.8253125 14.459375 40.3203125 16.984375 C43.2903125 16.654375 46.2603125 16.324375 49.3203125 15.984375 C44.38671786 25.85156428 39.95536202 32.17982093 30.54394531 37.76269531 C16.73568748 45.99411234 9.1421169 59.35063817 4.56640625 74.4765625 C0.73778147 90.80845843 3.36166135 108.63478458 12.109375 122.90234375 C16.601922 129.39058395 22.1140354 136.38123645 29.3203125 139.984375 C29.5977832 139.25581299 29.87525391 138.52725098 30.16113281 137.77661133 C31.24846915 135.15743152 32.46928265 132.77314758 33.8671875 130.30859375 C34.37531982 129.41027832 34.88345215 128.51196289 35.40698242 127.58642578 C35.95588135 126.62462402 36.50478027 125.66282227 37.0703125 124.671875 C37.64305908 123.66366699 38.21580566 122.65545898 38.8059082 121.61669922 C43.57489498 113.24331339 48.37340485 104.88475043 53.2956543 96.6003418 C56.00822115 92.0279668 58.62304107 87.46786557 60.96875 82.6953125 C63.13267651 78.40321617 65.1234605 74.60426907 68.3203125 70.984375 C72.9544746 69.61530816 76.65437058 69.86542655 81.3203125 70.984375 C79.8961065 74.79399564 78.14122367 78.22841468 76.1171875 81.75390625 C75.47378418 82.87764648 74.83038086 84.00138672 74.16748047 85.15917969 C73.46856271 86.37182447 72.76950316 87.58438754 72.0703125 88.796875 C71.34633643 90.05751355 70.62254329 91.31825716 69.89892578 92.57910156 C64.24209663 102.4253392 58.53622793 112.24299735 52.79296875 122.0390625 C50.31984211 126.26071444 47.87415654 130.49714428 45.44140625 134.7421875 C44.80412598 135.84916992 44.1668457 136.95615234 43.51025391 138.09667969 C42.28440776 140.22700581 41.06378667 142.36034953 39.84912109 144.49707031 C39.02468506 145.9255127 39.02468506 145.9255127 38.18359375 147.3828125 C37.70188721 148.22505371 37.22018066 149.06729492 36.72387695 149.93505859 C35.3203125 151.984375 35.3203125 151.984375 32.3203125 153.984375 C23.49648148 153.6172253 14.90724063 145.32151356 9.03125 139.1015625 C-2.82524391 124.42982803 -10.14831372 107.91383161 -9.8046875 88.921875 C-9.79566406 87.96087891 -9.78664062 86.99988281 -9.77734375 86.00976562 C-9.75403958 83.66769695 -9.72132808 81.32617708 -9.6796875 78.984375 C-10.3396875 78.984375 -10.9996875 78.984375 -11.6796875 78.984375 C-11.6796875 78.324375 -11.6796875 77.664375 -11.6796875 76.984375 C-12.3809375 77.29375 -13.0821875 77.603125 -13.8046875 77.921875 C-25.36925861 82.19573824 -37.69397785 80.19573987 -48.7421875 75.359375 C-60.49588871 68.98775874 -67.72151505 58.48386696 -71.6796875 45.984375 C-74.44124357 34.18499905 -72.01418829 22.02335855 -66.30859375 11.4296875 C-59.79014388 1.64419681 -50.85546651 -4.33991079 -39.9921875 -8.390625 C-25.61861508 -11.22401915 -11.78347485 -8.86602288 0 0 Z M-52.6796875 13.984375 C-59.6586648 22.80621183 -60.59951722 31.96970514 -59.6796875 42.984375 C-57.6038975 51.56099237 -51.03129145 59.1331179 -43.75 63.94921875 C-36.26994484 67.68924633 -27.79776019 69.16811188 -19.6796875 66.984375 C-10.1651421 63.51218376 -3.04061114 58.42932801 1.6953125 49.34765625 C5.53808027 39.99425275 5.59058135 31.0630344 1.76953125 21.69140625 C-2.85162339 13.05943814 -9.55457577 7.37280164 -18.6796875 3.984375 C-31.20429005 0.23186762 -43.65440058 5.0317262 -52.6796875 13.984375 Z " fill="#125282" transform="translate(90.6796875,102.015625)"/>
<path d="M0 0 C12.97232399 7.31539111 20.98018855 20.29038372 25.30859375 34.24609375 C29.85468568 52.35340907 26.31121018 69.12027237 17.1875 85.0625 C10.51795036 95.76019349 1.10423307 104.72527085 -11 109 C-9.426096 104.14712932 -7.67717972 99.36794839 -5.90234375 94.5859375 C-4.62648462 90.92957929 -3.87293577 87.77247805 -3.90234375 83.890625 C-3.90556641 83.13652344 -3.90878906 82.38242187 -3.91210938 81.60546875 C-3.92048828 80.82816406 -3.92886719 80.05085938 -3.9375 79.25 C-3.94201172 78.45722656 -3.94652344 77.66445313 -3.95117188 76.84765625 C-3.96291435 74.89840492 -3.98084854 72.94919262 -4 71 C-7.0549278 69.4725361 -10.2763314 69.76008168 -13.6328125 69.68359375 C-14.38464813 69.66281265 -15.13648376 69.64203156 -15.91110229 69.62062073 C-18.31564085 69.55517295 -20.72028967 69.49626262 -23.125 69.4375 C-24.75391771 69.39431023 -26.38282422 69.35069579 -28.01171875 69.30664062 C-32.00769915 69.19949649 -36.00379059 69.09821567 -40 69 C-36.52286267 61.79972909 -32.69386586 54.88066023 -28.625 48 C-27.38730337 45.89495293 -26.15035154 43.7894678 -24.9140625 41.68359375 C-24.27500977 40.59546387 -23.63595703 39.50733398 -22.97753906 38.38623047 C-20.95571377 34.92416667 -18.95403664 31.45129587 -16.9609375 27.97265625 C-16.6284903 27.39309174 -16.29604309 26.81352722 -15.95352173 26.21640015 C-14.34919101 23.41900376 -12.74778243 20.62000369 -11.15087891 17.81835938 C-7.65107815 11.7175244 -3.9963984 5.78873917 0 0 Z " fill="#E3F0FC" transform="translate(273,187)"/>
<path d="M0 0 C13.43117814 9.4160915 23.09806753 23.66597212 27.1171875 39.6484375 C28.08365763 46.32286371 27.78705752 53.08055908 27.57421875 59.8046875 C25.03758565 57.31757652 22.66564512 54.77814518 20.38671875 52.0546875 C14.77643406 45.61547424 8.49497099 39.24199508 0.57421875 35.8046875 C-2.41560094 35.50181057 -2.41560094 35.50181057 -5.42578125 36.8046875 C-7.53936049 39.38396403 -8.94617692 42.26580856 -10.42578125 45.2421875 C-11.28651939 46.8847655 -12.14849265 48.52669689 -13.01171875 50.16796875 C-13.42260742 50.96412598 -13.83349609 51.7602832 -14.25683594 52.58056641 C-16.45698485 56.76673111 -18.94042547 60.78366473 -21.42578125 64.8046875 C-24.24362162 62.2963363 -25.88301848 59.50545812 -27.7265625 56.23046875 C-28.36730713 55.09931641 -29.00805176 53.96816406 -29.66821289 52.80273438 C-30.00563507 52.20195068 -30.34305725 51.60116699 -30.69070435 50.98217773 C-32.47285977 47.80942503 -34.27092699 44.64569379 -36.06640625 41.48046875 C-36.43089371 40.8368338 -36.79538116 40.19319885 -37.1709137 39.53005981 C-40.72580033 33.25835401 -44.34762773 27.02703162 -47.98828125 20.8046875 C-48.53460205 19.87052002 -49.08092285 18.93635254 -49.64379883 17.97387695 C-50.17126709 17.07241943 -50.69873535 16.17096191 -51.2421875 15.2421875 C-51.75410645 14.36433594 -52.26602539 13.48648438 -52.79345703 12.58203125 C-53.97769656 10.56708825 -55.17582717 8.56028889 -56.38232422 6.55859375 C-57.02443848 5.48480469 -57.66655273 4.41101563 -58.328125 3.3046875 C-58.91972412 2.325 -59.51132324 1.3453125 -60.12084961 0.3359375 C-61.42578125 -2.1953125 -61.42578125 -2.1953125 -61.42578125 -5.1953125 C-59.34285695 -5.84246383 -57.25942586 -6.48798416 -55.17578125 -7.1328125 C-54.015625 -7.49246094 -52.85546875 -7.85210937 -51.66015625 -8.22265625 C-50.5928125 -8.54363281 -49.52546875 -8.86460937 -48.42578125 -9.1953125 C-47.79542969 -9.39511719 -47.16507813 -9.59492188 -46.515625 -9.80078125 C-30.33577722 -12.85529457 -13.72078966 -8.72290311 0 0 Z " fill="#E2F0FD" transform="translate(272.42578125,138.1953125)"/>
<path d="M0 0 C0.66 0 1.32 0 2 0 C2.25990723 0.48017578 2.51981445 0.96035156 2.78759766 1.45507812 C8.31422397 11.64112714 13.96136818 21.74647855 19.8125 31.75 C20.38959717 32.73758301 20.96669434 33.72516602 21.5612793 34.74267578 C24.7003715 40.10361822 27.86123915 45.45099053 31.0390625 50.7890625 C31.69156982 51.8915332 32.34407715 52.99400391 33.01635742 54.12988281 C34.2779331 56.26088598 35.54612819 58.38798697 36.8215332 60.51074219 C37.38445068 61.46368164 37.94736816 62.41662109 38.52734375 63.3984375 C39.28132446 64.66179932 39.28132446 64.66179932 40.05053711 65.95068359 C40.36385986 66.62695801 40.67718262 67.30323242 41 68 C40 70 40 70 37.5234375 71.03515625 C36.48445313 71.37417969 35.44546875 71.71320313 34.375 72.0625 C33.35148437 72.40410156 32.32796875 72.74570312 31.2734375 73.09765625 C15.06631717 77.56525147 -0.72554361 75.30750459 -15.625 67.9375 C-25.73169247 62.17458745 -34.35748785 54.24937334 -40 44 C-40.44859375 43.19820313 -40.8971875 42.39640625 -41.359375 41.5703125 C-46.58612879 31.70097151 -49.16798492 21.80640132 -49.0625 10.625 C-49.05347656 9.37976563 -49.04445313 8.13453125 -49.03515625 6.8515625 C-49.02355469 5.91054687 -49.01195313 4.96953125 -49 4 C-48.1646875 5.05767578 -48.1646875 5.05767578 -47.3125 6.13671875 C-36.4129096 19.64540436 -36.4129096 19.64540436 -22 29 C-18.99774631 29.06492804 -18.99774631 29.06492804 -16 28 C-13.82172986 25.52305777 -13.82172986 25.52305777 -12.16796875 22.28515625 C-11.84588943 21.71421738 -11.52381012 21.1432785 -11.19197083 20.55503845 C-10.17081598 18.73434864 -9.17920912 16.8993638 -8.1875 15.0625 C-7.50253115 13.83033316 -6.81570082 12.59919918 -6.12695312 11.36914062 C-2.97776084 5.73021242 -2.97776084 5.73021242 0 0 Z " fill="#E3F0FD" transform="translate(141,226)"/>
<path d="M0 0 C26.4 0 52.8 0 80 0 C76.84706022 18.91763868 69.79683127 34.47557511 54.09765625 46.16015625 C38.01909291 56.79307515 21.54852927 59.04538278 2.64453125 56.55859375 C-4.93312005 54.77890903 -12.30149985 50.91532051 -19 47 C-19.33 46.34 -19.66 45.68 -20 45 C-18.99582031 44.84144531 -17.99164063 44.68289063 -16.95703125 44.51953125 C-8.86446243 43.16612916 -1.48316831 41.35856757 6.1328125 38.18359375 C9.05155377 36.97871827 11.99518704 35.96742494 15 35 C16.26053288 26.50190751 11.76652309 20.52351854 7.5 13.5625 C6.4265053 11.77406263 5.35786167 9.98280382 4.29016113 8.19090271 C3.32694358 6.58031031 2.35222492 4.97661284 1.37695312 3.37329102 C0 1 0 1 0 0 Z " fill="#E2F0FD" transform="translate(179,267)"/>
<path d="M0 0 C2.046875 1.3671875 2.046875 1.3671875 3.046875 3.3671875 C1.41492188 3.60501953 1.41492188 3.60501953 -0.25 3.84765625 C-11.78708459 5.63687204 -22.43477616 8.22842587 -31.953125 15.3671875 C-31.46426076 20.43141065 -30.43139789 23.89086534 -27.79296875 28.23046875 C-27.16455078 29.28169922 -26.53613281 30.33292969 -25.88867188 31.41601562 C-25.22931641 32.49302734 -24.56996094 33.57003906 -23.890625 34.6796875 C-22.58361306 36.84025825 -21.28003681 39.0029124 -19.98046875 41.16796875 C-19.40031006 42.11841064 -18.82015137 43.06885254 -18.22241211 44.0480957 C-16.953125 46.3671875 -16.953125 46.3671875 -16.953125 48.3671875 C-43.023125 48.3671875 -69.093125 48.3671875 -95.953125 48.3671875 C-95.953125 34.83443017 -90.89578975 23.50835372 -81.953125 13.3671875 C-79.58728847 11.30125084 -77.10319904 9.42098103 -74.578125 7.5546875 C-73.8756665 7.03277832 -73.17320801 6.51086914 -72.44946289 5.97314453 C-49.49417899 -10.79244329 -25.38165472 -14.15797503 0 0 Z " fill="#E3F1FE" transform="translate(229.953125,113.6328125)"/>
<path d="M0 0 C8.77366606 5.30290699 13.4649448 13.03155316 16.65625 22.60546875 C17.62642464 33.94537884 15.91222842 42.01924095 8.65625 50.85546875 C1.53344857 58.19832421 -6.008587 62.13627513 -16.34375 62.35546875 C-25.74571645 62.18917091 -33.35533263 58.61257436 -40.28125 52.35546875 C-46.9886939 44.9756405 -49.78434053 36.17488665 -49.609375 26.34765625 C-48.64780781 16.42088913 -43.80262846 9.02279211 -36.34375 2.60546875 C-25.2073878 -5.38782275 -12.28618508 -5.8953872 0 0 Z " fill="#E2F0FE" transform="translate(212.34375,339.39453125)"/>
<path d="M0 0 C6.13212022 4.70979037 10.86239708 11.99235062 11.91015625 19.68359375 C12.75486126 31.02479714 11.59003417 39.44378828 4.41015625 48.43359375 C-2.4674056 55.5644728 -9.85614972 59.00750792 -19.77734375 59.24609375 C-30.51447241 58.75306233 -38.46426128 55.83100627 -45.81640625 47.796875 C-52.12440281 39.8885739 -53.86389297 32.78760912 -53.62109375 22.640625 C-52.3955913 13.51243393 -48.16474448 5.93549962 -41.15234375 -0.00390625 C-28.01890428 -9.19928291 -13.55062843 -8.5356295 0 0 Z " fill="#E4F0FD" transform="translate(350.08984375,265.31640625)"/>
<path d="M0 0 C8.50483109 5.14381537 14.38225744 11.74856153 17.2734375 21.375 C18.86769323 30.75579233 18.03292228 39.47941592 13.16796875 47.78515625 C7.84285912 55.06463602 1.1887786 60.40071137 -7.7265625 62.375 C-18.22170871 63.41495185 -26.7458303 62.41770009 -35.4140625 56.3125 C-42.46859173 50.49128007 -46.98959699 42.22820684 -48.1328125 33.1484375 C-48.43931856 22.03759271 -45.14175994 13.68442348 -37.7265625 5.375 C-35.32421875 3.64453125 -35.32421875 3.64453125 -32.7890625 2.1875 C-31.53802734 1.45466797 -31.53802734 1.45466797 -30.26171875 0.70703125 C-21.01648618 -4.15063332 -9.54429977 -4.56604375 0 0 Z " fill="#E2F1FE" transform="translate(344.7265625,107.625)"/>
<path d="M0 0 C1.37768516 4.42140818 0.97979877 8.74098434 0.83984375 13.3203125 C0.7117564 16.15419709 0.7117564 16.15419709 3 18 C5.57579385 18.24529581 8.05229007 18.37341793 10.6328125 18.4140625 C11.38464813 18.43342865 12.13648376 18.4527948 12.91110229 18.4727478 C15.31561899 18.53259147 17.72018344 18.57894726 20.125 18.625 C21.75392728 18.66317546 23.38283428 18.70222693 25.01171875 18.7421875 C29.00764806 18.83829666 33.00367187 18.92230941 37 19 C35.54731989 22.90071511 33.72731915 26.4074867 31.65625 30.015625 C31.33105881 30.58396561 31.00586761 31.15230621 30.67082214 31.73786926 C29.61715689 33.57714798 28.55873182 35.41363381 27.5 37.25 C26.76780877 38.52520806 26.03579482 39.80051792 25.30395508 41.07592773 C20.71774401 49.05950211 16.08367021 57.01395495 11.39453125 64.9375 C6.87077802 72.59042267 2.44434992 80.30079485 -2 88 C-12.68814551 84.3499328 -19.04053604 73.56148908 -24 64 C-27.38184762 56.34438892 -29.19484031 49.86213583 -26.16772461 41.77709961 C-25.07993084 39.34984868 -23.90863569 36.9879617 -22.6875 34.625 C-22.24962158 33.76374512 -21.81174316 32.90249023 -21.3605957 32.01513672 C-15.42276696 20.61858838 -8.38802922 9.74783724 0 0 Z " fill="#E2F0FD" transform="translate(122,154)"/>
<path d="M0 0 C0 0.33 0 0.66 0 1 C-1.16015625 1.07476562 -2.3203125 1.14953125 -3.515625 1.2265625 C-17.17854778 2.29514642 -27.4648385 5.25878164 -37.09765625 15.640625 C-43.27387811 23.30066196 -46.98400889 32.24648532 -48 42 C-48.65484375 41.56429687 -49.3096875 41.12859375 -49.984375 40.6796875 C-58.35490305 35.21756326 -66.72521902 29.7578429 -76.625 27.75 C-82.51654505 26.32964178 -85.2581992 23.01080951 -89.2578125 18.640625 C-95.88236344 12.2614278 -104.58885268 8.49484774 -113 5 C-113 3 -113 3 -111.42578125 1.37890625 C-110.72839844 0.77949219 -110.03101563 0.18007812 -109.3125 -0.4375 C-108.62800781 -1.03433594 -107.94351563 -1.63117188 -107.23828125 -2.24609375 C-83.51841407 -20.83286577 -26.05253702 -11.37505138 0 0 Z " fill="#D0ECFC" transform="translate(334,93)"/>
<path d="M0 0 C0.93199219 0.53109375 1.86398438 1.0621875 2.82421875 1.609375 C9.09956314 5.10865615 14.92921095 8.1903479 21.9375 10 C27.45149907 11.53240993 30.04702778 13.5446978 33.78125 17.77734375 C40.63510886 24.64326926 50.08318101 29.46402006 59 33 C57.86911577 36.39265269 57.05702289 36.9348413 54.3125 39.0625 C47.41704423 44.91993017 43.81856933 52.54429202 41 61 C23.9652242 53.53061285 11.61100406 28.73220252 4 12.9375 C3.60151855 12.11548096 3.20303711 11.29346191 2.79248047 10.4465332 C2.42783691 9.66882568 2.06319336 8.89111816 1.6875 8.08984375 C1.36136719 7.39753662 1.03523438 6.70522949 0.69921875 5.99194336 C0 4 0 4 0 0 Z " fill="#E2F0FD" transform="translate(112,298)"/>
<path d="M0 0 C1.04045471 -0.00200912 1.04045471 -0.00200912 2.10192871 -0.00405884 C17.05753685 0.00220832 30.91538683 1.79806067 45.25 6.25 C45.25 10.74464889 44.22154792 11.69880744 41.625 15.12890625 C37.757778 21.09453564 35.87454429 28.2238767 35.25 35.25 C34.59515625 34.81429687 33.9403125 34.37859375 33.265625 33.9296875 C24.89509695 28.46756326 16.52478098 23.0078429 6.625 21 C0.71761523 19.58019937 -2.11531425 16.22915115 -6.11328125 11.83203125 C-9.80357131 8.21828054 -13.94787511 5.95138927 -18.4765625 3.52734375 C-19.22679687 3.10582031 -19.97703125 2.68429688 -20.75 2.25 C-20.75 1.92 -20.75 1.59 -20.75 1.25 C-13.84714592 -0.05424998 -7.00198326 0.00792732 0 0 Z " fill="#E2F0FD" transform="translate(250.75,99.75)"/>
<path d="M0 0 C8.46662457 5.12070765 14.45890135 11.75420913 17.2734375 21.375 C17.99520776 27.03077649 17.93133125 32.71964414 17.2734375 38.375 C16.6134375 39.035 15.9534375 39.695 15.2734375 40.375 C14.90734375 39.91351563 14.54125 39.45203125 14.1640625 38.9765625 C1.3036835 23.4828678 -16.65727701 12.76533383 -34.7265625 4.375 C-26.10989583 -4.90653293 -10.97160372 -5.24887354 0 0 Z " fill="#CEECFC" transform="translate(344.7265625,107.625)"/>
<path d="M0 0 C3.65161311 12.51535775 0.72631111 21.85191706 -5.00317383 32.9921875 C-11.68297403 46.00426335 -15.62142342 59.42987162 -17 74 C-22.86756204 66.89522759 -28.24381264 57.766169 -27.84375 48.3046875 C-27.09142412 43.29073565 -24.99744786 39.09487046 -22.6875 34.625 C-22.24962158 33.76374512 -21.81174316 32.90249023 -21.3605957 32.01513672 C-15.42276696 20.61858838 -8.38802922 9.74783724 0 0 Z " fill="#D0EDFD" transform="translate(122,154)"/>
<path d="M0 0 C1.06541016 0.00902344 2.13082031 0.01804687 3.22851562 0.02734375 C5.84008034 0.05076586 8.45116937 0.08356548 11.0625 0.125 C9.76433225 2.7213355 8.80143763 2.79222295 6.1171875 3.7890625 C5.29468506 4.10230469 4.47218262 4.41554688 3.62475586 4.73828125 C2.73796143 5.07214844 1.85116699 5.40601562 0.9375 5.75 C-23.42698466 15.23267566 -48.1598051 30.95845765 -62.9375 53.125 C-62.23462055 40.94175619 -56.36967574 28.75104592 -47.23583984 20.60791016 C-32.99170035 8.8123867 -18.92538959 -0.3054377 0 0 Z " fill="#D1EBFB" transform="translate(196.9375,104.875)"/>
<path d="M0 0 C0.33 0 0.66 0 1 0 C1.19464844 1.06347656 1.38929688 2.12695312 1.58984375 3.22265625 C2.64828861 6.87985451 4.31349796 8.45043096 7.64355469 10.40893555 C8.27680664 10.74836182 8.91005859 11.08778809 9.5625 11.4375 C10.22797852 11.81237549 10.89345703 12.18725098 11.57910156 12.57348633 C13.7031025 13.74950222 15.8456186 14.88071443 18 16 C18.6811084 16.35771484 19.3622168 16.71542969 20.06396484 17.08398438 C30.97692496 22.7323091 42.21653499 26.58525273 54 30 C48.50945545 35.78207789 43.30636632 38.10843564 35.26049805 38.57885742 C24.94022627 38.80857493 16.81696 35.75563875 9.0625 28.75 C2.8563042 21.92166721 -0.18452691 13.83951841 -0.0625 4.6875 C-0.05347656 3.80449219 -0.04445312 2.92148437 -0.03515625 2.01171875 C-0.02355469 1.34785156 -0.01195312 0.68398438 0 0 Z " fill="#CDEBFB" transform="translate(163,363)"/>
<path d="M0 0 C6.62327134 3.88556255 11.3863527 8.94551411 14.296875 16.16015625 C16.89316552 26.6462852 15.90697254 36.28097214 10.60546875 45.6796875 C9.19010929 47.7252435 7.91371329 49.41659887 6 51 C5.34 51 4.68 51 4 51 C3.51442129 48.7095344 3.03650591 46.41786582 2.5625 44.125 C2.29566406 42.84882813 2.02882813 41.57265625 1.75390625 40.2578125 C0.01176412 30.97728298 -0.13077302 21.79667618 -0.0625 12.375 C-0.05798828 11.18003906 -0.05347656 9.98507812 -0.04882812 8.75390625 C-0.03715603 5.83588353 -0.02078326 2.91796963 0 0 Z " fill="#D1ECFB" transform="translate(80,264)"/>
<path d="M0 0 C0.85851562 1.12728516 0.85851562 1.12728516 1.734375 2.27734375 C3.83838785 4.98039556 3.83838785 4.98039556 6.140625 6.75390625 C9.32004596 9.47996534 11.67137582 11.91530486 12.34521484 16.18994141 C12.62988652 21.35616706 12.35368866 26.49933646 12.08154297 31.66113281 C11.92534449 36.14131665 12.43003955 40.56245075 13 45 C4.84715697 37.84199793 1.41082474 24.4144517 0 14 C-0.06578002 11.54245859 -0.08569162 9.08331222 -0.0625 6.625 C-0.05347656 5.37976563 -0.04445313 4.13453125 -0.03515625 2.8515625 C-0.02355469 1.91054687 -0.01195313 0.96953125 0 0 Z " fill="#D1E6F4" transform="translate(92,230)"/>
<path d="M0 0 C2.97050469 0 4.58130875 0.58899116 6.703125 2.671875 C11.03910589 8.06145872 11.03910589 8.06145872 10.875 12 C10.441875 12.99 10.441875 12.99 10 14 C7.02949531 14 5.41869125 13.41100884 3.296875 11.328125 C-1.03910589 5.93854128 -1.03910589 5.93854128 -0.875 2 C-0.58625 1.34 -0.2975 0.68 0 0 Z " fill="#B4B9BC" transform="translate(96,395)"/>
<path d="M0 0 C5.2975334 0.51683253 8.66762987 2.02680481 13 5 C14.0625 7.125 14.0625 7.125 14 9 C13.34 9.66 12.68 10.32 12 11 C6.94770045 10.85140295 3.05453079 7.72649589 -1 5 C-0.67 3.35 -0.34 1.7 0 0 Z " fill="#B5BABD" transform="translate(369,83)"/>
<path d="M0 0 C0.556875 0.226875 1.11375 0.45375 1.6875 0.6875 C1.953125 2.9765625 1.953125 2.9765625 1.6875 5.6875 C-0.140625 7.5234375 -0.140625 7.5234375 -2.5625 9.0625 C-3.35140625 9.58585937 -4.1403125 10.10921875 -4.953125 10.6484375 C-7.3125 11.6875 -7.3125 11.6875 -9.546875 11.5390625 C-10.12953125 11.25804688 -10.7121875 10.97703125 -11.3125 10.6875 C-11.6425 9.6975 -11.9725 8.7075 -12.3125 7.6875 C-4.46923575 -0.60395078 -4.46923575 -0.60395078 0 0 Z " fill="#B7BBBF" transform="translate(157.3125,92.3125)"/>
<path d="M0 0 C0.0625 2.25 0.0625 2.25 -1 5 C-4.81448621 7.53250424 -8.4671538 9.1251303 -13.0625 8.75 C-13.701875 8.5025 -14.34125 8.255 -15 8 C-15.0625 5.75 -15.0625 5.75 -14 3 C-9.63790915 0.10393144 -5.13570789 -1.98801596 0 0 Z " fill="#B5BABD" transform="translate(190,77)"/>
<path d="M0 0 C4.0429571 1.96684399 7.17347949 4.50841584 10 8 C9.8125 10.8125 9.8125 10.8125 9 13 C4.04754787 12.84992569 1.63034686 10.13930942 -1.7421875 6.88671875 C-3 5 -3 5 -2.8203125 2.83203125 C-2 1 -2 1 0 0 Z " fill="#B5BBBE" transform="translate(120,421)"/>
<path d="M0 0 C1.65 0.33 3.3 0.66 5 1 C4.72014305 5.61763975 2.61399479 8.29036089 -0.3671875 11.6171875 C-2 13 -2 13 -4.875 13.4375 C-5.57625 13.293125 -6.2775 13.14875 -7 13 C-7.3077917 9.86162389 -7.27813784 8.40656372 -5.46875 5.76171875 C-4.8190625 5.07722656 -4.169375 4.39273437 -3.5 3.6875 C-2.8503125 2.99011719 -2.200625 2.29273438 -1.53125 1.57421875 C-1.0259375 1.05472656 -0.520625 0.53523438 0 0 Z " fill="#B6BBBF" transform="translate(433,408)"/>
<path d="M0 0 C1.65 0.33 3.3 0.66 5 1 C4.53411505 6.70709064 3.06242216 10.15939723 0 15 C-1.32 15 -2.64 15 -4 15 C-5.11346788 12.19966161 -5.03510273 11.09856297 -4.00390625 8.203125 C-3.52824219 7.22859375 -3.05257813 6.2540625 -2.5625 5.25 C-2.08941406 4.26515625 -1.61632812 3.2803125 -1.12890625 2.265625 C-0.75636719 1.51796875 -0.38382812 0.7703125 0 0 Z " fill="#B7BCC0" transform="translate(468,349)"/>
<path d="M0 0 C3.41140898 0.3544321 4.55856949 1.44542189 7.01953125 3.78125 C7.71691406 4.4309375 8.41429687 5.080625 9.1328125 5.75 C9.65230469 6.2553125 10.17179687 6.760625 10.70703125 7.28125 C10.39453125 9.21875 10.39453125 9.21875 9.70703125 11.28125 C8.71703125 11.61125 7.72703125 11.94125 6.70703125 12.28125 C4.48046875 10.98828125 4.48046875 10.98828125 2.08203125 9.09375 C1.28539062 8.48144531 0.48875 7.86914062 -0.33203125 7.23828125 C-2.38330283 5.19109587 -3.03594933 4.13906117 -3.29296875 1.28125 C-2.29296875 0.28125 -2.29296875 0.28125 0 0 Z " fill="#B7BCC0" transform="translate(400.29296875,101.71875)"/>
<path d="M0 0 C0.33 0.99 0.66 1.98 1 3 C0 5 0 5 -1.890625 5.6328125 C-5.97875601 6.48563453 -9.79614144 7.27121668 -14 7 C-14.33 5.35 -14.66 3.7 -15 2 C-13.00458132 1.31974363 -11.00382009 0.65509503 -9 0 C-8.319375 -0.226875 -7.63875 -0.45375 -6.9375 -0.6875 C-4.43686759 -1.09082781 -2.43817226 -0.60954306 0 0 Z " fill="#B5BABE" transform="translate(322,480)"/>
<path d="M0 0 C5.70629354 0.42797202 9.41078616 2.84345952 14 6 C13.67 7.32 13.34 8.64 13 10 C7.29290936 9.53411505 3.84060277 8.06242216 -1 5 C-0.67 3.35 -0.34 1.7 0 0 Z " fill="#B5B9BD" transform="translate(174,462)"/>
<path d="M0 0 C0 2.1875 0 2.1875 -1 5 C-3.44107903 7.1616097 -5.99382333 8.73989211 -9 10 C-12 9.8125 -12 9.8125 -14 9 C-14 6.8125 -14 6.8125 -13 4 C-9.06300343 0.51373434 -5.25195397 -2.1336063 0 0 Z " fill="#B4B9BD" transform="translate(386,454)"/>
<path d="M0 0 C1.11375 0.3403125 1.11375 0.3403125 2.25 0.6875 C1.69429145 4.428165 0.240215 6.0300749 -2.5625 8.5 C-3.24957031 9.12519531 -3.93664062 9.75039063 -4.64453125 10.39453125 C-6.75 11.6875 -6.75 11.6875 -8.94921875 11.57421875 C-9.54347656 11.28160156 -10.13773437 10.98898437 -10.75 10.6875 C-11.08 9.6975 -11.41 8.7075 -11.75 7.6875 C-3.84513274 -0.4369469 -3.84513274 -0.4369469 0 0 Z " fill="#B7BCC0" transform="translate(411.75,433.3125)"/>
<path d="M0 0 C1.65 0.33 3.3 0.66 5 1 C4.51675181 6.15464734 1.81389239 9.81550319 -1 14 C-2.65 13.67 -4.3 13.34 -6 13 C-5.51675181 7.84535266 -2.81389239 4.18449681 0 0 Z " fill="#B6BBBF" transform="translate(453,380)"/>
<path d="M0 0 C1.32 0 2.64 0 4 0 C5.16585932 3.49757797 4.75860292 4.61568066 3.6875 8.0625 C3.29111328 9.37927734 3.29111328 9.37927734 2.88671875 10.72265625 C2 13 2 13 0 15 C-1.32 15 -2.64 15 -4 15 C-5.16585932 11.50242203 -4.75860292 10.38431934 -3.6875 6.9375 C-3.42324219 6.05964844 -3.15898438 5.18179688 -2.88671875 4.27734375 C-2 2 -2 2 0 0 Z " fill="#B7BCBF" transform="translate(70,198)"/>
<path d="M0 0 C1.92578125 0.19921875 1.92578125 0.19921875 4 1 C5.23046875 2.70703125 5.23046875 2.70703125 6.1875 4.8125 C6.51105469 5.49957031 6.83460938 6.18664062 7.16796875 6.89453125 C7.9755351 8.93809118 8.62319453 10.83450351 9 13 C8.67 13.66 8.34 14.32 8 15 C6.35 15 4.7 15 3 15 C-1.68688577 5.3960689 -1.68688577 5.3960689 -1 1 C-0.67 0.67 -0.34 0.34 0 0 Z " fill="#B7BBBF" transform="translate(463,181)"/>
<path d="M0 0 C2.81821637 0.25512274 3.82336454 0.80431173 5.73828125 2.92578125 C6.25777344 3.71339844 6.77726562 4.50101563 7.3125 5.3125 C8.11107422 6.48232422 8.11107422 6.48232422 8.92578125 7.67578125 C10 10 10 10 9.66796875 12.29296875 C9.44753906 12.85628906 9.22710937 13.41960937 9 14 C6.8125 14.5 6.8125 14.5 4 14 C1.07902423 10.75534854 -0.82127457 7.40001587 -1.375 3.0625 C-1 1 -1 1 0 0 Z " fill="#B6BCBF" transform="translate(446,151)"/>
<path d="M0 0 C4.56167877 0.26833405 6.82493192 2.17492791 9.83984375 5.3671875 C11 7 11 7 11.375 9.875 C11.25125 10.57625 11.1275 11.2775 11 12 C9.26953125 12.7265625 9.26953125 12.7265625 7 13 C4.82421875 11.5234375 4.82421875 11.5234375 2.6875 9.375 C1.96949219 8.68148437 1.25148438 7.98796875 0.51171875 7.2734375 C-1 5 -1 5 -0.73046875 2.2265625 C-0.48941406 1.49179688 -0.24835938 0.75703125 0 0 Z " fill="#B5BABD" transform="translate(424,125)"/>
<path d="M0 0 C10.16236162 0.84132841 10.16236162 0.84132841 14 3 C14.33 3.99 14.66 4.98 15 6 C14.67 6.66 14.34 7.32 14 8 C12.24929483 7.88529863 10.49942464 7.75780972 8.75 7.625 C7.77546875 7.55539063 6.8009375 7.48578125 5.796875 7.4140625 C3.10366811 7.01534751 1.33036721 6.36492937 -1 5 C-0.67 3.35 -0.34 1.7 0 0 Z " fill="#B8BCC0" transform="translate(304,61)"/>
<path d="M0 0 C0 1.65 0 3.3 0 5 C-9.41002278 9.59225513 -9.41002278 9.59225513 -14 9 C-14.33 7.68 -14.66 6.36 -15 5 C-10.48631832 1.18073088 -5.90250682 -0.34720628 0 0 Z " fill="#B6BBBE" transform="translate(355,469)"/>
<path d="M0 0 C5.31431373 0.38885222 9.31991397 2.14924332 13 6 C13.4375 8.8125 13.4375 8.8125 13 11 C6.54972485 10.73672346 3.52084209 8.49335977 -1 4 C-0.67 2.68 -0.34 1.36 0 0 Z " fill="#B5B9BD" transform="translate(144,444)"/>
<path d="M0 0 C1.65 0 3.3 0 5 0 C5.86883706 1.57533086 6.71959068 3.16064509 7.5625 4.75 C8.03816406 5.63171875 8.51382813 6.5134375 9.00390625 7.421875 C10.07998186 10.20701188 10.06528748 11.26980214 9 14 C5.8912081 13.69121427 4.43355739 13.51628935 2.3828125 11.07421875 C1.96773438 10.28660156 1.55265625 9.49898438 1.125 8.6875 C0.69445312 7.90761719 0.26390625 7.12773437 -0.1796875 6.32421875 C-1.10121562 3.71322242 -0.94771526 2.55649118 0 0 Z " fill="#B6BBBE" transform="translate(78,366)"/>
<path d="M0 0 C1.65 0.33 3.3 0.66 5 1 C4.58846263 5.97093824 4.20399168 10.44508386 2 15 C0.35 15 -1.3 15 -3 15 C-2.22095672 4.44191344 -2.22095672 4.44191344 0 0 Z " fill="#B5BABD" transform="translate(478,316)"/>
<path d="M0 0 C2.125 0.375 2.125 0.375 4 1 C5.20568053 5.67201205 5.09382426 10.21496292 5 15 C3.34385343 15.38218767 1.67542976 15.71395102 0 16 C-1.87303704 14.12696296 -1.47495882 11.08263116 -1.6875 8.5625 C-1.84798828 6.80099609 -1.84798828 6.80099609 -2.01171875 5.00390625 C-2 2 -2 2 0 0 Z " fill="#B6BBBF" transform="translate(482,247)"/>
<path d="M0 0 C2.125 0.375 2.125 0.375 4 1 C4.17523261 6.08174565 4.28258584 10.32069904 2 15 C-0.0625 15.9375 -0.0625 15.9375 -2 16 C-2.33 15.67 -2.66 15.34 -3 15 C-2.96200774 12.8519758 -2.84473342 10.70509867 -2.6875 8.5625 C-2.60886719 7.38816406 -2.53023437 6.21382812 -2.44921875 5.00390625 C-2 2 -2 2 0 0 Z " fill="#B6BBBF" transform="translate(61,231)"/>
<path d="M0 0 C1.65 0 3.3 0 5 0 C8.44419134 9.41002278 8.44419134 9.41002278 8 14 C6.35 14.33 4.7 14.66 3 15 C1.094753 9.89665983 -0.42589023 5.53657294 0 0 Z " fill="#B5BABE" transform="translate(474,214)"/>
<path d="M0 0 C9.67311609 0.98370672 9.67311609 0.98370672 13 3 C13.8125 5.625 13.8125 5.625 14 8 C8.1977825 8.36263859 4.36000789 7.25684543 -1 5 C-0.67 3.35 -0.34 1.7 0 0 Z " fill="#B6BBBF" transform="translate(206,475)"/>
<path d="M0 0 C1.65 0 3.3 0 5 0 C5 4.62 5 9.24 5 14 C3.02 14.99 3.02 14.99 1 16 C0.34 15.67 -0.32 15.34 -1 15 C-1.02693575 12.87506859 -1.04636628 10.75004088 -1.0625 8.625 C-1.07410156 7.44164062 -1.08570313 6.25828125 -1.09765625 5.0390625 C-1 2 -1 2 0 0 Z " fill="#B6BABE" transform="translate(482,282)"/>
<path d="M0 0 C10.39706862 0.86075949 10.39706862 0.86075949 14 3 C14.9375 5 14.9375 5 15 7 C14.34 7.66 13.68 8.32 13 9 C8.18960473 8.66439103 4.24989456 7.16661292 0 5 C-0.33 4.01 -0.66 3.02 -1 2 C-0.67 1.34 -0.34 0.68 0 0 Z " fill="#B6BBBE" transform="translate(337,70)"/>
<path d="M0 0 C3 1 3 1 4 3 C4.09608608 4.83128771 4.12982579 6.66619959 4.125 8.5 C4.12757812 9.4796875 4.13015625 10.459375 4.1328125 11.46875 C4 14 4 14 3 16 C1.35 16 -0.3 16 -2 16 C-2 11.05 -2 6.1 -2 1 C-1.34 0.67 -0.68 0.34 0 0 Z " fill="#B4B9BC" transform="translate(58,265)"/>
<path d="M0 0 C0 1.65 0 3.3 0 5 C-4.92984325 7.03993514 -8.57960425 8.40652968 -14 8 C-14.625 6.125 -14.625 6.125 -15 4 C-11.2354727 0.2354727 -5.16743168 -0.32296448 0 0 Z " fill="#B6BBBE" transform="translate(222,65)"/>
<path d="M0 0 C1.44826172 -0.02126953 1.44826172 -0.02126953 2.92578125 -0.04296875 C5.70269158 0.18876776 7.32223141 0.76609156 9.6875 2.1875 C9.6875 3.5075 9.6875 4.8275 9.6875 6.1875 C6.15655698 7.38970203 3.55851018 6.98282349 -0.0625 6.25 C-1.04734375 6.05535156 -2.0321875 5.86070312 -3.046875 5.66015625 C-3.79453125 5.50417969 -4.5421875 5.34820312 -5.3125 5.1875 C-5.875 3.25 -5.875 3.25 -6.3125 1.1875 C-4.59154777 -0.53345223 -2.34086086 0.01550239 0 0 Z " fill="#B7BBBF" transform="translate(244.3125,482.8125)"/>
<path d="M0 0 C1.98 0 3.96 0 6 0 C6.53394179 1.4117783 7.05165104 2.82970244 7.5625 4.25 C7.85253906 5.03890625 8.14257812 5.8278125 8.44140625 6.640625 C9.04522837 9.19103452 8.8473932 10.55322229 8 13 C6.68 13.33 5.36 13.66 4 14 C-0.59225513 4.58997722 -0.59225513 4.58997722 0 0 Z " fill="#B5B8BB" transform="translate(65,335)"/>
<path d="M0 0 C1.65 0.33 3.3 0.66 5 1 C7.48063781 10.41002278 7.48063781 10.41002278 6 15 C4.35 14.67 2.7 14.34 1 14 C0.63794536 12.04310963 0.28558579 10.08442332 -0.0625 8.125 C-0.25972656 7.03445313 -0.45695312 5.94390625 -0.66015625 4.8203125 C-1 2 -1 2 0 0 Z " fill="#B6BABE" transform="translate(58,300)"/>
<path d="M0 0 C0 1.65 0 3.3 0 5 C-4.67201205 6.20568053 -9.21496292 6.09382426 -14 6 C-14.33 4.35 -14.66 2.7 -15 1 C-13.44033408 0.63355422 -11.87707349 0.28239138 -10.3125 -0.0625 C-9.44238281 -0.25972656 -8.57226562 -0.45695312 -7.67578125 -0.66015625 C-4.83998724 -1.02032279 -2.75210018 -0.70909969 0 0 Z " fill="#B5BABE" transform="translate(256,60)"/>
<path d="M0 0 C0.680625 0.309375 1.36125 0.61875 2.0625 0.9375 C1.77235788 4.41920548 1.33493676 5.67978955 -1.25 8.125 C-6.90301724 11.9375 -6.90301724 11.9375 -10.9375 11.9375 C-10.78868079 7.02646607 -8.17285962 4.48048248 -4.79296875 1.25390625 C-2.9375 -0.0625 -2.9375 -0.0625 0 0 Z " fill="#B5BBBF" transform="translate(129.9375,113.0625)"/>
<path d="M0 0 C0.38218767 1.65614657 0.71395102 3.32457024 1 5 C0 6 0 6 -3.16015625 6.09765625 C-5.09181641 6.08025391 -5.09181641 6.08025391 -7.0625 6.0625 C-8.35285156 6.05347656 -9.64320313 6.04445313 -10.97265625 6.03515625 C-11.97167969 6.02355469 -12.97070312 6.01195312 -14 6 C-14 4.35 -14 2.7 -14 1 C-9.32798795 -0.20568053 -4.78503708 -0.09382426 0 0 Z " fill="#B5BABE" transform="translate(287,484)"/>
<path d="M0 0 C4.95 0 9.9 0 15 0 C15 1.65 15 3.3 15 5 C12.05613377 6.47193312 9.62609964 5.84936173 6.375 5.5625 C5.18648438 5.46066406 3.99796875 5.35882813 2.7734375 5.25390625 C1.85820312 5.17011719 0.94296875 5.08632812 0 5 C0 3.35 0 1.7 0 0 Z " fill="#B6BBBF" transform="translate(269,59)"/>
</svg>
